<svg version="1.2" xmlns="http://www.w3.org/2000/svg" viewBox="0 0 30 41" width="30" height="41">
	<title>livelink_logo_text-svg</title>
	<style>
		.s0 { fill: #fdefe6;stroke: #000000;stroke-linejoin: round;stroke-width: .5 } 
		.s1 { fill: #000000;stroke: #000000;stroke-width: .5 } 
	</style>
	<g id="Group_5869">
		<g id="Group_5866">
			<g id="Component_357_40">
				<g id="Group_34">
					<g id="Group_29">
						<path id="Path_253" class="s0" d="m16.8 23.9l5.9-3.4 6.1 3.5-5.9 3.4z"/>
						<path id="Path_253_-_Outline" fill-rule="evenodd" class="s1" d="m22.7 20q0.1 0 0.1 0 0 0 0.1 0 0 0 0 0 0.1 0 0.1 0l6.1 3.5q0 0.1 0.1 0.1 0 0.1 0.1 0.1 0 0.1 0 0.2 0 0 0 0.1 0 0.1 0 0.2 0 0 0 0.1-0.1 0-0.1 0.1-0.1 0.1-0.1 0.1l-5.9 3.4q-0.1 0-0.1 0.1-0.1 0-0.2 0-0.1 0-0.1 0-0.1-0.1-0.2-0.1l-6-3.5q-0.1 0-0.1-0.1-0.1 0-0.1-0.1-0.1-0.1-0.1-0.1 0-0.1 0-0.2 0-0.1 0-0.1 0-0.1 0.1-0.2 0 0 0.1-0.1 0 0 0.1-0.1l5.8-3.4q0.1 0 0.1 0 0 0 0.1 0 0 0 0 0 0.1 0 0.1 0zm5 4l-5-2.8-4.7 2.7 4.9 2.9z"/>
					</g>
					<g id="Group_30">
						<path id="Path_254" class="s0" d="m22.9 27.5l5.9-3.4v7.1l-5.9 3.4z"/>
						<path id="Path_254_-_Outline" fill-rule="evenodd" class="s1" d="m28.8 23.6q0 0 0.1 0 0 0 0 0 0.1 0 0.1 0 0 0 0.1 0 0 0.1 0.1 0.1 0 0.1 0.1 0.1 0 0.1 0 0.2 0 0 0 0.1v7.1q0 0.1 0 0.2 0 0-0.1 0.1 0 0.1 0 0.1-0.1 0.1-0.2 0.1l-5.8 3.4q-0.1 0.1-0.2 0.1 0 0-0.1 0-0.1 0-0.1 0-0.1 0-0.2-0.1 0 0-0.1-0.1-0.1 0-0.1-0.1 0 0 0-0.1-0.1-0.1-0.1-0.2l0.1-7.1q0 0 0-0.1 0-0.1 0-0.1 0.1-0.1 0.1-0.2 0.1 0 0.1 0l5.9-3.5q0 0 0.1 0 0 0 0 0 0.1 0 0.1 0 0 0 0.1 0zm-0.6 7.3v-5.8l-4.7 2.8v5.8z"/>
					</g>
					<g id="Group_31">
						<path id="Path_255" class="s0" d="m16.9 7.8v16.1l6 3.5v7.2l-6.1-3.5-6.2-3.6 0.1-23.3z"/>
						<path id="Path_255_-_Outline" fill-rule="evenodd" class="s1" d="m10.7 3.7q0 0 0.1 0 0 0 0.1 0 0 0 0 0 0.1 0 0.1 0l6.2 3.7q0 0 0.1 0 0 0.1 0.1 0.2 0 0 0 0.1 0.1 0.1 0.1 0.1l-0.1 15.8 5.8 3.3q0.1 0.1 0.1 0.1 0.1 0.1 0.1 0.2 0 0 0.1 0.1 0 0.1 0 0.1v7.2q0 0.1-0.1 0.2 0 0.1 0 0.1-0.1 0.1-0.1 0.1-0.1 0.1-0.1 0.1-0.1 0.1-0.2 0.1 0 0-0.1 0-0.1 0-0.1 0-0.1 0-0.2-0.1l-6-3.5-6.2-3.6q-0.1 0-0.1-0.1-0.1 0-0.1-0.1-0.1-0.1-0.1-0.1 0-0.1 0-0.2l0.1-23.3q0 0 0-0.1 0-0.1 0-0.2 0.1 0 0.1-0.1 0.1 0 0.1-0.1 0.1 0 0.1 0 0 0 0.1 0 0 0 0 0 0.1 0 0.1 0zm5.6 4.5l-5-3-0.1 22 5.9 3.4 5.2 3.1 0.1-5.9-5.8-3.4q-0.1-0.1-0.1-0.1-0.1-0.1-0.1-0.1-0.1-0.1-0.1-0.2 0 0 0-0.1z"/>
					</g>
					<g id="Group_32">
						<path id="Path_256" class="s0" d="m16.9 7.8l5.9-3.4-0.1 15.8-5.9 3.4z"/>
						<path id="Path_256_-_Outline" fill-rule="evenodd" class="s1" d="m22.8 3.8q0 0 0 0 0.1 0 0.1 0 0 0 0.1 0.1 0 0 0 0 0.1 0 0.2 0.1 0 0 0 0.1 0.1 0.1 0.1 0.1 0 0.1 0 0.2v15.8q0 0.1 0 0.2-0.1 0-0.1 0.1 0 0.1-0.1 0.1 0 0.1-0.1 0.1l-5.9 3.4q0 0-0.1 0.1-0.1 0-0.1 0-0.1 0-0.2 0-0.1-0.1-0.1-0.1-0.1 0-0.1-0.1-0.1 0-0.1-0.1-0.1-0.1-0.1-0.1 0-0.1 0-0.2v-15.8q0-0.1 0.1-0.2 0 0 0-0.1 0.1-0.1 0.1-0.1 0.1-0.1 0.1-0.1l5.9-3.4q0 0 0.1 0 0-0.1 0-0.1 0.1 0 0.1 0 0 0 0.1 0zm-0.6 16.1v-14.6l-4.8 2.8v14.6z"/>
					</g>
					<g id="Group_33">
						<path id="Path_257" class="s0" d="m10.7 4.2l5.9-3.4 6.2 3.6-5.9 3.4z"/>
						<path id="Path_257_-_Outline" fill-rule="evenodd" class="s1" d="m16.6 0.3q0 0 0.1 0 0 0 0 0 0.1 0 0.1 0 0 0 0.1 0l6.1 3.6q0.1 0 0.2 0.1 0 0 0 0.1 0.1 0.1 0.1 0.1 0 0.1 0 0.2 0 0 0 0.1 0 0.1-0.1 0.2 0 0 0 0.1-0.1 0-0.2 0.1l-5.8 3.4q-0.1 0-0.2 0 0 0-0.1 0-0.1 0-0.1 0-0.1 0-0.2 0l-6.2-3.6q0 0-0.1-0.1 0 0-0.1-0.1 0-0.1 0-0.1 0-0.1 0-0.2 0-0.1 0-0.1 0-0.1 0-0.2 0.1 0 0.1-0.1 0.1 0 0.1-0.1l5.9-3.4q0 0 0.1 0 0 0 0 0 0.1 0 0.1 0 0-0.1 0.1 0zm5.1 4.1l-5.1-3-4.8 2.8 5.1 2.9z"/>
					</g>
				</g>
				<g id="Group_40">
					<g id="Group_35">
						<path id="Path_258" class="s0" d="m7 29.3l5.9-3.5 6 3.5-5.8 3.5z"/>
						<path id="Path_258_-_Outline" fill-rule="evenodd" class="s1" d="m12.9 25.3q0 0 0.1 0 0 0 0 0 0.1 0 0.1 0 0 0 0.1 0.1l6 3.5q0.1 0 0.1 0 0.1 0.1 0.1 0.2 0.1 0 0.1 0.1 0 0.1 0 0.1 0 0.1 0 0.2 0 0.1-0.1 0.1 0 0.1-0.1 0.1 0 0.1-0.1 0.1l-5.8 3.4q-0.1 0.1-0.2 0.1-0.1 0-0.1 0-0.1 0-0.2 0 0 0-0.1-0.1l-6.1-3.5q0 0-0.1-0.1 0 0-0.1-0.1 0 0 0-0.1 0-0.1 0-0.1 0-0.1 0-0.2 0-0.1 0-0.1 0.1-0.1 0.1-0.1 0.1-0.1 0.1-0.1l5.9-3.4q0-0.1 0.1-0.1 0 0 0 0 0.1 0 0.1 0 0 0 0.1 0zm4.9 4l-4.9-2.8-4.8 2.7 5 2.9z"/>
					</g>
					<g id="Group_36">
						<path id="Path_259" class="s0" d="m13.1 32.9l5.8-3.4v7.1l-5.8 3.4z"/>
						<path id="Path_259_-_Outline" fill-rule="evenodd" class="s1" d="m18.9 28.9q0.1 0 0.1 0 0.1 0 0.1 0 0 0 0.1 0 0 0.1 0 0.1 0.1 0 0.1 0.1 0.1 0 0.1 0.1 0.1 0 0.1 0.1 0 0.1 0 0.2v7.1q0 0 0 0.1-0.1 0.1-0.1 0.1 0 0.1-0.1 0.1 0 0.1-0.1 0.1l-5.9 3.4q0 0.1-0.1 0.1-0.1 0-0.1 0-0.1 0-0.2 0-0.1 0-0.1-0.1-0.1 0-0.1 0-0.1-0.1-0.1-0.2-0.1 0-0.1-0.1 0-0.1 0-0.1v-7.1q0-0.1 0-0.2 0.1-0.1 0.1-0.1 0-0.1 0.1-0.1 0-0.1 0.1-0.1l5.9-3.4q0 0 0-0.1 0.1 0 0.1 0 0 0 0.1 0 0 0 0 0zm-0.5 7.3v-5.8l-4.8 2.8v5.8z"/>
					</g>
					<g id="Group_37">
						<path id="Path_260" class="s0" d="m7.1 13.2l-0.1 16 6.1 3.6v7.2l-6.1-3.6-6.2-3.6 0.1-23.3z"/>
						<path id="Path_260_-_Outline" fill-rule="evenodd" class="s1" d="m0.9 9q0 0 0 0 0.1 0 0.1 0 0.1 0 0.1 0 0 0 0 0.1l6.2 3.6q0.1 0 0.1 0.1 0.1 0 0.1 0.1 0.1 0.1 0.1 0.1 0 0.1 0 0.2v15.7l5.8 3.4q0 0 0.1 0.1 0 0 0.1 0.1 0 0 0 0.1 0 0.1 0 0.2v7.2q0 0 0 0.1 0 0.1-0.1 0.1 0 0.1-0.1 0.2 0 0-0.1 0 0 0.1-0.1 0.1-0.1 0-0.1 0-0.1 0-0.2 0-0.1 0-0.1-0.1l-6.1-3.5-6.2-3.6q0 0-0.1-0.1 0 0-0.1-0.1 0 0 0-0.1 0-0.1 0-0.2v-23.2q0-0.1 0-0.2 0.1-0.1 0.1-0.1 0-0.1 0.1-0.1 0-0.1 0.1-0.1 0 0 0.1-0.1 0 0 0 0 0.1 0 0.1 0 0 0 0.1 0zm5.6 4.5l-5.1-3v22l5.9 3.4 5.2 3.1v-5.9l-5.8-3.4q0 0-0.1-0.1 0 0-0.1-0.1 0-0.1 0-0.1 0-0.1 0-0.2z"/>
					</g>
					<g id="Group_38">
						<path id="Path_261" class="s0" d="m7.1 13.1l5.8-3.4v15.8l-5.9 3.5z"/>
						<path id="Path_261_-_Outline" fill-rule="evenodd" class="s1" d="m12.9 9.1q0.1 0.1 0.1 0.1 0 0 0.1 0 0 0 0 0 0.1 0 0.1 0 0.1 0.1 0.1 0.1 0.1 0.1 0.1 0.1 0 0.1 0.1 0.2 0 0 0 0.1l-0.1 15.8q0 0.1 0 0.2 0 0.1 0 0.1-0.1 0.1-0.1 0.1-0.1 0.1-0.1 0.1l-5.9 3.4q-0.1 0.1-0.1 0.1-0.1 0-0.2 0-0.1 0-0.1 0-0.1 0-0.2-0.1 0 0-0.1-0.1 0 0-0.1-0.1 0 0 0-0.1 0-0.1 0-0.1v-15.9q0-0.1 0-0.1 0-0.1 0.1-0.2 0 0 0.1-0.1 0 0 0.1-0.1l5.8-3.4q0.1 0 0.1 0 0 0 0.1 0 0 0 0.1 0 0-0.1 0-0.1zm-0.6 16.1l0.1-14.5-4.8 2.7v14.6z"/>
					</g>
					<g id="Group_39">
						<path id="Path_262" class="s0" d="m0.9 9.5l5.8-3.4 6.2 3.6-5.8 3.4z"/>
						<path id="Path_262_-_Outline" fill-rule="evenodd" class="s1" d="m6.7 5.6q0.1 0 0.1 0 0 0 0.1 0 0 0 0.1 0 0 0 0 0.1l6.2 3.5q0.1 0.1 0.1 0.1 0.1 0.1 0.1 0.1 0 0.1 0.1 0.2 0 0 0 0.1 0 0.1 0 0.1-0.1 0.1-0.1 0.2 0 0-0.1 0.1 0 0-0.1 0.1l-5.9 3.4q0 0-0.1 0.1-0.1 0-0.1 0-0.1 0-0.2 0-0.1-0.1-0.1-0.1l-6.2-3.6q-0.1 0-0.1-0.1-0.1 0-0.1-0.1 0 0-0.1-0.1 0-0.1 0-0.2 0 0 0-0.1 0.1-0.1 0.1-0.1 0-0.1 0.1-0.1 0-0.1 0.1-0.1l5.9-3.4q0-0.1 0-0.1 0.1 0 0.1 0 0 0 0.1 0 0 0 0 0zm5.1 4.1l-5.1-2.9-4.7 2.7 5.1 3z"/>
					</g>
				</g>
			</g>
		</g>
	</g>
</svg>